<svg width="443" height="250" viewBox="0 0 443 250" fill="none" xmlns="http://www.w3.org/2000/svg">
<rect width="443" height="250" rx="10" fill="#625BE6"/>
<path d="M44.5833 52H41.9465L36.8137 43.5801V52H34.177V39.2031H36.8137L41.9553 47.6406V39.2031H44.5833V52ZM46.3235 47.1572C46.3235 46.2139 46.5051 45.373 46.8684 44.6348C47.2317 43.8965 47.7532 43.3252 48.4329 42.9209C49.1184 42.5166 49.9124 42.3145 50.8147 42.3145C52.0979 42.3145 53.1438 42.707 53.9524 43.4922C54.7668 44.2773 55.2209 45.3438 55.3147 46.6914L55.3323 47.3418C55.3323 48.8008 54.925 49.9727 54.1106 50.8574C53.2961 51.7363 52.2034 52.1758 50.8323 52.1758C49.4612 52.1758 48.3655 51.7363 47.5452 50.8574C46.7307 49.9785 46.3235 48.7832 46.3235 47.2715V47.1572ZM48.8635 47.3418C48.8635 48.2441 49.0334 48.9355 49.3733 49.416C49.7131 49.8906 50.1995 50.1279 50.8323 50.1279C51.4475 50.1279 51.928 49.8936 52.2737 49.4248C52.6194 48.9502 52.7922 48.1943 52.7922 47.1572C52.7922 46.2725 52.6194 45.5869 52.2737 45.1006C51.928 44.6143 51.4417 44.3711 50.8147 44.3711C50.1936 44.3711 49.7131 44.6143 49.3733 45.1006C49.0334 45.5811 48.8635 46.3281 48.8635 47.3418ZM59.2786 42.4902L59.3577 43.5537C60.0315 42.7275 60.9426 42.3145 62.0911 42.3145C63.3157 42.3145 64.1565 42.7979 64.6135 43.7646C65.2815 42.7979 66.2336 42.3145 67.47 42.3145C68.5012 42.3145 69.2688 42.6162 69.7727 43.2197C70.2766 43.8174 70.5286 44.7197 70.5286 45.9268V52H67.9797V45.9355C67.9797 45.3965 67.8743 45.0039 67.6633 44.7578C67.4524 44.5059 67.0803 44.3799 66.5471 44.3799C65.7854 44.3799 65.2581 44.7432 64.9651 45.4697L64.9739 52H62.4338V45.9443C62.4338 45.3936 62.3254 44.9951 62.1086 44.749C61.8918 44.5029 61.5227 44.3799 61.0012 44.3799C60.2805 44.3799 59.759 44.6787 59.4368 45.2764V52H56.8967V42.4902H59.2786ZM76.8655 52.1758C75.4709 52.1758 74.3342 51.748 73.4553 50.8926C72.5823 50.0371 72.1458 48.8975 72.1458 47.4736V47.2275C72.1458 46.2725 72.3303 45.4199 72.6995 44.6699C73.0686 43.9141 73.5901 43.334 74.2639 42.9297C74.9436 42.5195 75.717 42.3145 76.5842 42.3145C77.885 42.3145 78.9075 42.7246 79.6516 43.5449C80.4016 44.3652 80.7766 45.5283 80.7766 47.0342V48.0713H74.7209C74.803 48.6924 75.0491 49.1904 75.4592 49.5654C75.8752 49.9404 76.3997 50.1279 77.0325 50.1279C78.011 50.1279 78.7756 49.7734 79.3264 49.0645L80.5745 50.4619C80.1936 51.001 79.678 51.4229 79.0276 51.7275C78.3772 52.0264 77.6565 52.1758 76.8655 52.1758ZM76.5754 44.3711C76.0715 44.3711 75.6614 44.541 75.345 44.8809C75.0344 45.2207 74.8352 45.707 74.7473 46.3398H78.2805V46.1377C78.2688 45.5752 78.1165 45.1416 77.8235 44.8369C77.5305 44.5264 77.1145 44.3711 76.5754 44.3711Z" fill="white"/>
<path d="M44.9866 160.643C44.9866 160.145 44.8108 159.764 44.4593 159.5C44.1077 159.23 43.4749 158.949 42.5608 158.656C41.6468 158.357 40.9232 158.064 40.3899 157.777C38.9368 156.992 38.2103 155.935 38.2103 154.604C38.2103 153.913 38.4036 153.298 38.7903 152.759C39.1829 152.214 39.7425 151.789 40.469 151.484C41.2015 151.18 42.0218 151.027 42.93 151.027C43.844 151.027 44.6585 151.194 45.3733 151.528C46.0882 151.856 46.6419 152.322 47.0345 152.926C47.4329 153.529 47.6321 154.215 47.6321 154.982H44.9954C44.9954 154.396 44.8108 153.942 44.4417 153.62C44.0726 153.292 43.554 153.128 42.886 153.128C42.2415 153.128 41.7405 153.266 41.3831 153.541C41.0257 153.811 40.847 154.168 40.847 154.613C40.847 155.029 41.055 155.378 41.471 155.659C41.8929 155.94 42.511 156.204 43.3255 156.45C44.8255 156.901 45.9183 157.461 46.6038 158.129C47.2894 158.797 47.6321 159.629 47.6321 160.625C47.6321 161.732 47.2132 162.603 46.3753 163.235C45.5374 163.862 44.4095 164.176 42.9915 164.176C42.0071 164.176 41.1107 163.997 40.3021 163.64C39.4935 163.276 38.8753 162.781 38.4476 162.154C38.0257 161.527 37.8148 160.801 37.8148 159.975H40.4603C40.4603 161.387 41.304 162.093 42.9915 162.093C43.6185 162.093 44.1077 161.967 44.4593 161.715C44.8108 161.457 44.9866 161.1 44.9866 160.643ZM54.7689 164C54.6517 163.771 54.5667 163.487 54.514 163.147C53.8987 163.833 53.0989 164.176 52.1146 164.176C51.1829 164.176 50.4095 163.906 49.7942 163.367C49.1849 162.828 48.8802 162.148 48.8802 161.328C48.8802 160.32 49.2523 159.547 49.9964 159.008C50.7464 158.469 51.8274 158.196 53.2396 158.19H54.4085V157.646C54.4085 157.206 54.2942 156.854 54.0657 156.591C53.8431 156.327 53.4886 156.195 53.0023 156.195C52.5745 156.195 52.2376 156.298 51.9915 156.503C51.7513 156.708 51.6312 156.989 51.6312 157.347H49.0911C49.0911 156.796 49.261 156.286 49.6009 155.817C49.9407 155.349 50.4212 154.982 51.0423 154.719C51.6634 154.449 52.3607 154.314 53.1341 154.314C54.306 154.314 55.2347 154.61 55.9202 155.202C56.6116 155.788 56.9573 156.614 56.9573 157.681V161.803C56.9632 162.705 57.0892 163.388 57.3353 163.851V164H54.7689ZM52.6683 162.233C53.0433 162.233 53.389 162.151 53.7054 161.987C54.0218 161.817 54.2562 161.592 54.4085 161.311V159.676H53.4593C52.1878 159.676 51.511 160.115 51.429 160.994L51.4202 161.144C51.4202 161.46 51.5315 161.721 51.7542 161.926C51.9769 162.131 52.2815 162.233 52.6683 162.233ZM61.5892 164H59.0403V150.5H61.5892V164ZM63.2942 159.175C63.2942 157.692 63.6253 156.512 64.2874 155.633C64.9554 154.754 65.8665 154.314 67.0208 154.314C67.9466 154.314 68.7112 154.66 69.3148 155.352V150.5H71.8636V164H69.5696L69.4466 162.989C68.8138 163.78 67.9993 164.176 67.0032 164.176C65.8841 164.176 64.9847 163.736 64.305 162.857C63.6312 161.973 63.2942 160.745 63.2942 159.175ZM65.8343 159.359C65.8343 160.25 65.9896 160.933 66.3001 161.407C66.6107 161.882 67.0618 162.119 67.6536 162.119C68.4388 162.119 68.9925 161.788 69.3148 161.126V157.373C68.9983 156.711 68.4505 156.38 67.6712 156.38C66.4466 156.38 65.8343 157.373 65.8343 159.359ZM73.4368 159.157C73.4368 158.214 73.6185 157.373 73.9817 156.635C74.345 155.896 74.8665 155.325 75.5462 154.921C76.2317 154.517 77.0257 154.314 77.928 154.314C79.2112 154.314 80.2571 154.707 81.0657 155.492C81.8802 156.277 82.3343 157.344 82.428 158.691L82.4456 159.342C82.4456 160.801 82.0384 161.973 81.2239 162.857C80.4095 163.736 79.3167 164.176 77.9456 164.176C76.5745 164.176 75.4788 163.736 74.6585 162.857C73.844 161.979 73.4368 160.783 73.4368 159.271V159.157ZM75.9769 159.342C75.9769 160.244 76.1468 160.936 76.4866 161.416C76.8265 161.891 77.3128 162.128 77.9456 162.128C78.5608 162.128 79.0413 161.894 79.387 161.425C79.7327 160.95 79.9056 160.194 79.9056 159.157C79.9056 158.272 79.7327 157.587 79.387 157.101C79.0413 156.614 78.555 156.371 77.928 156.371C77.3069 156.371 76.8265 156.614 76.4866 157.101C76.1468 157.581 75.9769 158.328 75.9769 159.342Z" fill="white"/>
<path d="M39.4379 126.605L36.3715 125.736L36.9477 123.969L39.9848 125.189L39.7895 121.781H41.7035L41.5082 125.258L44.4672 124.057L45.0434 125.844L41.9184 126.713L43.9692 129.311L42.4164 130.414L40.6391 127.562L38.8813 130.316L37.3285 129.262L39.4379 126.605ZM53.4809 126.605L50.4145 125.736L50.9906 123.969L54.0278 125.189L53.8324 121.781H55.7465L55.5512 125.258L58.5102 124.057L59.0864 125.844L55.9614 126.713L58.0121 129.311L56.4594 130.414L54.6821 127.562L52.9242 130.316L51.3715 129.262L53.4809 126.605ZM67.5238 126.605L64.4574 125.736L65.0336 123.969L68.0707 125.189L67.8754 121.781H69.7895L69.5942 125.258L72.5531 124.057L73.1293 125.844L70.0043 126.713L72.0551 129.311L70.5024 130.414L68.725 127.562L66.9672 130.316L65.4145 129.262L67.5238 126.605ZM81.5668 126.605L78.5004 125.736L79.0766 123.969L82.1137 125.189L81.9184 121.781H83.8324L83.6371 125.258L86.5961 124.057L87.1723 125.844L84.0473 126.713L86.0981 129.311L84.5453 130.414L82.768 127.562L81.0102 130.316L79.4574 129.262L81.5668 126.605Z" fill="white"/>
<path d="M123.819 126.605L120.753 125.736L121.329 123.969L124.366 125.189L124.171 121.781H126.085L125.889 125.258L128.848 124.057L129.424 125.844L126.299 126.713L128.35 129.311L126.798 130.414L125.02 127.562L123.262 130.316L121.71 129.262L123.819 126.605ZM137.862 126.605L134.796 125.736L135.372 123.969L138.409 125.189L138.214 121.781H140.128L139.932 125.258L142.891 124.057L143.467 125.844L140.342 126.713L142.393 129.311L140.84 130.414L139.063 127.562L137.305 130.316L135.753 129.262L137.862 126.605ZM151.905 126.605L148.839 125.736L149.415 123.969L152.452 125.189L152.257 121.781H154.171L153.975 125.258L156.934 124.057L157.51 125.844L154.385 126.713L156.436 129.311L154.883 130.414L153.106 127.562L151.348 130.316L149.796 129.262L151.905 126.605ZM165.948 126.605L162.882 125.736L163.458 123.969L166.495 125.189L166.299 121.781H168.214L168.018 125.258L170.977 124.057L171.553 125.844L168.428 126.713L170.479 129.311L168.926 130.414L167.149 127.562L165.391 130.316L163.839 129.262L165.948 126.605Z" fill="white"/>
<path d="M207.145 126.605L204.079 125.736L204.655 123.969L207.692 125.189L207.497 121.781H209.411L209.216 125.258L212.174 124.057L212.751 125.844L209.626 126.713L211.676 129.311L210.124 130.414L208.346 127.562L206.589 130.316L205.036 129.262L207.145 126.605ZM221.188 126.605L218.122 125.736L218.698 123.969L221.735 125.189L221.54 121.781H223.454L223.258 125.258L226.217 124.057L226.794 125.844L223.669 126.713L225.719 129.311L224.167 130.414L222.389 127.562L220.632 130.316L219.079 129.262L221.188 126.605ZM235.231 126.605L232.165 125.736L232.741 123.969L235.778 125.189L235.583 121.781H237.497L237.301 125.258L240.26 124.057L240.837 125.844L237.712 126.713L239.762 129.311L238.21 130.414L236.432 127.562L234.674 130.316L233.122 129.262L235.231 126.605ZM249.274 126.605L246.208 125.736L246.784 123.969L249.821 125.189L249.626 121.781H251.54L251.344 125.258L254.303 124.057L254.88 125.844L251.755 126.713L253.805 129.311L252.253 130.414L250.475 127.562L248.717 130.316L247.165 129.262L249.274 126.605Z" fill="white"/>
<path d="M309.446 136H299.7V134.066L304.3 129.164C304.931 128.474 305.397 127.872 305.696 127.357C306.002 126.843 306.155 126.355 306.155 125.893C306.155 125.261 305.996 124.766 305.677 124.408C305.358 124.044 304.902 123.861 304.31 123.861C303.672 123.861 303.167 124.083 302.796 124.525C302.431 124.962 302.249 125.538 302.249 126.254H299.417C299.417 125.388 299.622 124.597 300.032 123.881C300.449 123.165 301.035 122.605 301.79 122.201C302.545 121.791 303.401 121.586 304.359 121.586C305.823 121.586 306.959 121.938 307.767 122.641C308.581 123.344 308.987 124.337 308.987 125.619C308.987 126.322 308.805 127.038 308.441 127.768C308.076 128.497 307.451 129.346 306.566 130.316L303.333 133.725H309.446V136ZM319.534 130.648H321.146V132.924H319.534V136H316.712V132.924H310.882L310.755 131.146L316.683 121.781H319.534V130.648ZM313.567 130.648H316.712V125.629L316.526 125.951L313.567 130.648ZM330.325 121.635V123.959H330.052C328.776 123.979 327.747 124.311 326.966 124.955C326.191 125.6 325.726 126.495 325.569 127.641C326.325 126.872 327.278 126.488 328.431 126.488C329.668 126.488 330.651 126.931 331.38 127.816C332.109 128.702 332.474 129.867 332.474 131.312C332.474 132.237 332.272 133.074 331.868 133.822C331.471 134.571 330.905 135.154 330.169 135.57C329.44 135.987 328.613 136.195 327.689 136.195C326.191 136.195 324.98 135.674 324.056 134.633C323.138 133.591 322.679 132.201 322.679 130.463V129.447C322.679 127.904 322.969 126.544 323.548 125.365C324.134 124.18 324.97 123.266 326.058 122.621C327.151 121.97 328.418 121.641 329.857 121.635H330.325ZM327.571 128.754C327.116 128.754 326.702 128.874 326.331 129.115C325.96 129.35 325.687 129.662 325.511 130.053V130.912C325.511 131.856 325.696 132.595 326.067 133.129C326.439 133.656 326.959 133.92 327.63 133.92C328.235 133.92 328.724 133.682 329.095 133.207C329.472 132.725 329.661 132.104 329.661 131.342C329.661 130.567 329.472 129.942 329.095 129.467C328.717 128.992 328.209 128.754 327.571 128.754ZM341.81 121.635V123.959H341.536C340.26 123.979 339.232 124.311 338.45 124.955C337.676 125.6 337.21 126.495 337.054 127.641C337.809 126.872 338.763 126.488 339.915 126.488C341.152 126.488 342.135 126.931 342.864 127.816C343.594 128.702 343.958 129.867 343.958 131.312C343.958 132.237 343.756 133.074 343.353 133.822C342.956 134.571 342.389 135.154 341.653 135.57C340.924 135.987 340.097 136.195 339.173 136.195C337.676 136.195 336.465 135.674 335.54 134.633C334.622 133.591 334.163 132.201 334.163 130.463V129.447C334.163 127.904 334.453 126.544 335.032 125.365C335.618 124.18 336.455 123.266 337.542 122.621C338.636 121.97 339.902 121.641 341.341 121.635H341.81ZM339.056 128.754C338.6 128.754 338.187 128.874 337.816 129.115C337.444 129.35 337.171 129.662 336.995 130.053V130.912C336.995 131.856 337.181 132.595 337.552 133.129C337.923 133.656 338.444 133.92 339.114 133.92C339.72 133.92 340.208 133.682 340.579 133.207C340.957 132.725 341.146 132.104 341.146 131.342C341.146 130.567 340.957 129.942 340.579 129.467C340.202 128.992 339.694 128.754 339.056 128.754Z" fill="white"/>
<path d="M58.3328 77.6777H50.493V99H45.2196V77.6777H37.4852V73.4062H58.3328V77.6777ZM56.575 89.3145C56.575 87.4277 56.9383 85.7461 57.6649 84.2695C58.3914 82.793 59.4344 81.6504 60.7938 80.8418C62.1649 80.0332 63.7528 79.6289 65.5575 79.6289C68.1239 79.6289 70.2157 80.4141 71.8328 81.9844C73.4618 83.5547 74.37 85.6875 74.5575 88.3828L74.5926 89.6836C74.5926 92.6016 73.7782 94.9453 72.1493 96.7148C70.5203 98.4727 68.3348 99.3516 65.5926 99.3516C62.8504 99.3516 60.659 98.4727 59.0184 96.7148C57.3895 94.957 56.575 92.5664 56.575 89.543V89.3145ZM61.6551 89.6836C61.6551 91.4883 61.995 92.8711 62.6746 93.832C63.3543 94.7812 64.327 95.2559 65.5926 95.2559C66.8231 95.2559 67.784 94.7871 68.4754 93.8496C69.1668 92.9004 69.5125 91.3887 69.5125 89.3145C69.5125 87.5449 69.1668 86.1738 68.4754 85.2012C67.784 84.2285 66.8114 83.7422 65.5575 83.7422C64.3153 83.7422 63.3543 84.2285 62.6746 85.2012C61.995 86.1621 61.6551 87.6562 61.6551 89.6836ZM82.3973 79.9805L82.5555 82.1777C83.9149 80.4785 85.7371 79.6289 88.0223 79.6289C90.0379 79.6289 91.5379 80.2207 92.5223 81.4043C93.5067 82.5879 94.0106 84.3574 94.034 86.7129V99H88.9539V86.8359C88.9539 85.7578 88.7196 84.9785 88.2508 84.498C87.7821 84.0059 87.0028 83.7598 85.9129 83.7598C84.4832 83.7598 83.411 84.3691 82.6961 85.5879V99H77.6161V79.9805H82.3973ZM105.003 91.8105L108.518 79.9805H113.968L106.321 101.953L105.899 102.955C104.763 105.439 102.888 106.682 100.274 106.682C99.536 106.682 98.786 106.57 98.0243 106.348V102.498L98.7977 102.516C99.7586 102.516 100.473 102.369 100.942 102.076C101.423 101.783 101.798 101.297 102.067 100.617L102.665 99.0527L96.0028 79.9805H101.47L105.003 91.8105ZM138.542 92.2852C138.542 91.2891 138.19 90.5273 137.487 90C136.784 89.4609 135.518 88.8984 133.69 88.3125C131.862 87.7148 130.415 87.1289 129.348 86.5547C126.442 84.9844 124.989 82.8691 124.989 80.209C124.989 78.8262 125.376 77.5957 126.149 76.5176C126.934 75.4277 128.054 74.5781 129.507 73.9688C130.972 73.3594 132.612 73.0547 134.429 73.0547C136.257 73.0547 137.886 73.3887 139.315 74.0566C140.745 74.7129 141.852 75.6445 142.638 76.8516C143.434 78.0586 143.833 79.4297 143.833 80.9648H138.559C138.559 79.793 138.19 78.8848 137.452 78.2402C136.714 77.584 135.677 77.2559 134.341 77.2559C133.052 77.2559 132.05 77.5312 131.335 78.082C130.62 78.6211 130.263 79.3359 130.263 80.2266C130.263 81.0586 130.679 81.7559 131.511 82.3184C132.354 82.8809 133.591 83.4082 135.22 83.9004C138.22 84.8027 140.405 85.9219 141.776 87.2578C143.147 88.5938 143.833 90.2578 143.833 92.25C143.833 94.4648 142.995 96.2051 141.319 97.4707C139.643 98.7246 137.388 99.3516 134.552 99.3516C132.583 99.3516 130.79 98.9941 129.173 98.2793C127.556 97.5527 126.319 96.5625 125.464 95.3086C124.62 94.0547 124.198 92.6016 124.198 90.9492H129.489C129.489 93.7734 131.177 95.1855 134.552 95.1855C135.806 95.1855 136.784 94.9336 137.487 94.4297C138.19 93.9141 138.542 93.1992 138.542 92.2852ZM153.167 75.3047V79.9805H156.419V83.707H153.167V93.1992C153.167 93.9023 153.302 94.4062 153.571 94.7109C153.841 95.0156 154.356 95.168 155.118 95.168C155.681 95.168 156.179 95.127 156.612 95.0449V98.8945C155.616 99.1992 154.591 99.3516 153.536 99.3516C149.973 99.3516 148.157 97.5527 148.087 93.9551V83.707H145.309V79.9805H148.087V75.3047H153.167ZM170.27 99C170.036 98.543 169.866 97.9746 169.761 97.2949C168.53 98.666 166.931 99.3516 164.962 99.3516C163.098 99.3516 161.552 98.8125 160.321 97.7344C159.102 96.6562 158.493 95.2969 158.493 93.6562C158.493 91.6406 159.237 90.0938 160.725 89.0156C162.225 87.9375 164.388 87.3926 167.212 87.3809H169.55V86.291C169.55 85.4121 169.321 84.709 168.864 84.1816C168.419 83.6543 167.71 83.3906 166.737 83.3906C165.882 83.3906 165.208 83.5957 164.716 84.0059C164.235 84.416 163.995 84.9785 163.995 85.6934H158.915C158.915 84.5918 159.255 83.5723 159.934 82.6348C160.614 81.6973 161.575 80.9648 162.817 80.4375C164.059 79.8984 165.454 79.6289 167.001 79.6289C169.345 79.6289 171.202 80.2207 172.573 81.4043C173.956 82.5762 174.647 84.2285 174.647 86.3613V94.6055C174.659 96.4102 174.911 97.7754 175.403 98.7012V99H170.27ZM166.069 95.4668C166.819 95.4668 167.511 95.3027 168.143 94.9746C168.776 94.6348 169.245 94.1836 169.55 93.6211V90.3516H167.651C165.108 90.3516 163.755 91.2305 163.591 92.9883L163.573 93.2871C163.573 93.9199 163.796 94.4414 164.241 94.8516C164.686 95.2617 165.296 95.4668 166.069 95.4668ZM189.237 84.7441C188.546 84.6504 187.936 84.6035 187.409 84.6035C185.487 84.6035 184.227 85.2539 183.63 86.5547V99H178.55V79.9805H183.348L183.489 82.248C184.509 80.502 185.921 79.6289 187.725 79.6289C188.288 79.6289 188.815 79.7051 189.307 79.8574L189.237 84.7441ZM198.606 91.3711L196.778 93.1992V99H191.698V72H196.778V86.959L197.763 85.6934L202.632 79.9805H208.731L201.858 87.9082L209.329 99H203.493L198.606 91.3711Z" fill="white"/>
<path d="M46.9967 198.672H43.2623V207H38.5748V184.25H47.0279C49.7154 184.25 51.7884 184.849 53.2467 186.047C54.705 187.245 55.4342 188.938 55.4342 191.125C55.4342 192.677 55.0956 193.974 54.4186 195.016C53.7519 196.047 52.7363 196.87 51.3717 197.484L56.2936 206.781V207H51.2623L46.9967 198.672ZM43.2623 194.875H47.0436C48.2206 194.875 49.1321 194.578 49.7779 193.984C50.4238 193.38 50.7467 192.552 50.7467 191.5C50.7467 190.427 50.4394 189.583 49.8248 188.969C49.2206 188.354 48.2884 188.047 47.0279 188.047H43.2623V194.875ZM69.3248 201.016C69.3248 200.161 69.0852 199.484 68.6061 198.984C68.1373 198.474 67.3352 198.005 66.1998 197.578C65.0644 197.151 64.0852 196.729 63.2623 196.312C62.4394 195.885 61.7311 195.401 61.1373 194.859C60.554 194.307 60.0956 193.661 59.7623 192.922C59.4394 192.182 59.2779 191.302 59.2779 190.281C59.2779 188.521 59.8404 187.078 60.9654 185.953C62.0904 184.828 63.5852 184.172 65.4498 183.984V180.641H67.9498V184.031C69.7936 184.292 71.2363 185.062 72.2779 186.344C73.3196 187.615 73.8404 189.266 73.8404 191.297H69.3248C69.3248 190.047 69.0644 189.115 68.5436 188.5C68.0331 187.875 67.3456 187.562 66.4811 187.562C65.6269 187.562 64.9654 187.807 64.4967 188.297C64.0279 188.776 63.7936 189.443 63.7936 190.297C63.7936 191.089 64.0227 191.724 64.4811 192.203C64.9394 192.682 65.7884 193.172 67.0279 193.672C68.2779 194.172 69.304 194.646 70.1061 195.094C70.9081 195.531 71.5852 196.031 72.1373 196.594C72.6894 197.146 73.1113 197.781 73.4029 198.5C73.6946 199.208 73.8404 200.036 73.8404 200.984C73.8404 202.755 73.2884 204.193 72.1842 205.297C71.08 206.401 69.5592 207.052 67.6217 207.25V210.359H65.1373V207.266C63.0019 207.036 61.3456 206.281 60.1686 205C59.0019 203.708 58.4186 201.995 58.4186 199.859H62.9342C62.9342 201.099 63.2259 202.052 63.8092 202.719C64.4029 203.375 65.2519 203.703 66.3561 203.703C67.2727 203.703 67.9967 203.464 68.5279 202.984C69.0592 202.495 69.3248 201.839 69.3248 201.016ZM98.2311 198.438H100.809V202.078H98.2311V207H93.7154V202.078H84.3873L84.1842 199.234L93.6686 184.25H98.2311V198.438ZM88.6842 198.438H93.7154V190.406L93.4186 190.922L88.6842 198.438ZM118.84 207H103.247V203.906L110.606 196.062C111.616 194.958 112.361 193.995 112.84 193.172C113.33 192.349 113.575 191.568 113.575 190.828C113.575 189.818 113.32 189.026 112.809 188.453C112.299 187.87 111.57 187.578 110.622 187.578C109.601 187.578 108.794 187.932 108.2 188.641C107.616 189.339 107.325 190.26 107.325 191.406H102.794C102.794 190.021 103.122 188.755 103.778 187.609C104.445 186.464 105.382 185.568 106.59 184.922C107.799 184.266 109.169 183.938 110.7 183.938C113.044 183.938 114.861 184.5 116.153 185.625C117.455 186.75 118.106 188.339 118.106 190.391C118.106 191.516 117.814 192.661 117.231 193.828C116.648 194.995 115.648 196.354 114.231 197.906L109.059 203.359H118.84V207ZM133.872 184.016V187.734H133.434C131.393 187.766 129.747 188.297 128.497 189.328C127.257 190.359 126.512 191.792 126.262 193.625C127.471 192.396 128.997 191.781 130.84 191.781C132.82 191.781 134.393 192.49 135.559 193.906C136.726 195.323 137.309 197.188 137.309 199.5C137.309 200.979 136.986 202.318 136.34 203.516C135.705 204.714 134.799 205.646 133.622 206.312C132.455 206.979 131.132 207.312 129.653 207.312C127.257 207.312 125.32 206.479 123.84 204.812C122.372 203.146 121.637 200.922 121.637 198.141V196.516C121.637 194.047 122.101 191.87 123.028 189.984C123.965 188.089 125.304 186.625 127.044 185.594C128.794 184.552 130.82 184.026 133.122 184.016H133.872ZM129.465 195.406C128.736 195.406 128.075 195.599 127.481 195.984C126.887 196.359 126.45 196.859 126.169 197.484V198.859C126.169 200.37 126.465 201.552 127.059 202.406C127.653 203.25 128.486 203.672 129.559 203.672C130.528 203.672 131.309 203.292 131.903 202.531C132.507 201.76 132.809 200.766 132.809 199.547C132.809 198.307 132.507 197.307 131.903 196.547C131.299 195.786 130.486 195.406 129.465 195.406ZM155.309 197.594C155.309 200.74 154.658 203.146 153.356 204.812C152.054 206.479 150.148 207.312 147.637 207.312C145.158 207.312 143.262 206.495 141.95 204.859C140.637 203.224 139.965 200.88 139.934 197.828V193.641C139.934 190.464 140.59 188.052 141.903 186.406C143.226 184.76 145.127 183.938 147.606 183.938C150.085 183.938 151.981 184.755 153.294 186.391C154.606 188.016 155.278 190.354 155.309 193.406V197.594ZM150.794 193C150.794 191.115 150.533 189.745 150.012 188.891C149.502 188.026 148.7 187.594 147.606 187.594C146.544 187.594 145.757 188.005 145.247 188.828C144.747 189.641 144.481 190.917 144.45 192.656V198.188C144.45 200.042 144.7 201.422 145.2 202.328C145.71 203.224 146.523 203.672 147.637 203.672C148.741 203.672 149.538 203.24 150.028 202.375C150.518 201.51 150.773 200.188 150.794 198.406V193ZM158.794 204.781C158.794 204.062 159.033 203.479 159.512 203.031C160.002 202.583 160.611 202.359 161.34 202.359C162.08 202.359 162.689 202.583 163.169 203.031C163.658 203.479 163.903 204.062 163.903 204.781C163.903 205.49 163.663 206.068 163.184 206.516C162.705 206.953 162.09 207.172 161.34 207.172C160.601 207.172 159.991 206.953 159.512 206.516C159.033 206.068 158.794 205.49 158.794 204.781ZM183.278 207H167.684V203.906L175.044 196.062C176.054 194.958 176.799 193.995 177.278 193.172C177.768 192.349 178.012 191.568 178.012 190.828C178.012 189.818 177.757 189.026 177.247 188.453C176.736 187.87 176.007 187.578 175.059 187.578C174.038 187.578 173.231 187.932 172.637 188.641C172.054 189.339 171.762 190.26 171.762 191.406H167.231C167.231 190.021 167.559 188.755 168.215 187.609C168.882 186.464 169.82 185.568 171.028 184.922C172.236 184.266 173.606 183.938 175.137 183.938C177.481 183.938 179.299 184.5 180.59 185.625C181.893 186.75 182.544 188.339 182.544 190.391C182.544 191.516 182.252 192.661 181.669 193.828C181.085 194.995 180.085 196.354 178.669 197.906L173.497 203.359H183.278V207ZM201.372 197.594C201.372 200.74 200.721 203.146 199.419 204.812C198.116 206.479 196.21 207.312 193.7 207.312C191.221 207.312 189.325 206.495 188.012 204.859C186.7 203.224 186.028 200.88 185.997 197.828V193.641C185.997 190.464 186.653 188.052 187.965 186.406C189.288 184.76 191.189 183.938 193.669 183.938C196.148 183.938 198.044 184.755 199.356 186.391C200.669 188.016 201.34 190.354 201.372 193.406V197.594ZM196.856 193C196.856 191.115 196.596 189.745 196.075 188.891C195.564 188.026 194.762 187.594 193.669 187.594C192.606 187.594 191.82 188.005 191.309 188.828C190.809 189.641 190.544 190.917 190.512 192.656V198.188C190.512 200.042 190.762 201.422 191.262 202.328C191.773 203.224 192.585 203.672 193.7 203.672C194.804 203.672 195.601 203.24 196.09 202.375C196.58 201.51 196.835 200.188 196.856 198.406V193Z" fill="white"/>
<path d="M395.653 53.7778C395.653 55 396.708 56 397.997 56H407.372C408.662 56 409.716 55 409.716 53.7778V40.4444H395.653V53.7778ZM410.888 37.1111H406.786L405.615 36H399.755L398.583 37.1111H394.481V39.3333H410.888V37.1111Z" fill="#E5E5E5"/>
</svg>
