<svg width="443" height="250" viewBox="0 0 443 250" fill="none" xmlns="http://www.w3.org/2000/svg">
<rect width="443" height="250" rx="10" fill="#5BCBF8"/>
<path d="M44.5835 52H41.9468L36.814 43.5801V52H34.1772V39.2031H36.814L41.9556 47.6406V39.2031H44.5835V52ZM46.3237 47.1572C46.3237 46.2139 46.5054 45.373 46.8687 44.6348C47.2319 43.8965 47.7534 43.3252 48.4331 42.9209C49.1187 42.5166 49.9126 42.3145 50.8149 42.3145C52.0981 42.3145 53.144 42.707 53.9526 43.4922C54.7671 44.2773 55.2212 45.3438 55.3149 46.6914L55.3325 47.3418C55.3325 48.8008 54.9253 49.9727 54.1108 50.8574C53.2964 51.7363 52.2036 52.1758 50.8325 52.1758C49.4614 52.1758 48.3657 51.7363 47.5454 50.8574C46.731 49.9785 46.3237 48.7832 46.3237 47.2715V47.1572ZM48.8638 47.3418C48.8638 48.2441 49.0337 48.9355 49.3735 49.416C49.7134 49.8906 50.1997 50.1279 50.8325 50.1279C51.4478 50.1279 51.9282 49.8936 52.2739 49.4248C52.6196 48.9502 52.7925 48.1943 52.7925 47.1572C52.7925 46.2725 52.6196 45.5869 52.2739 45.1006C51.9282 44.6143 51.4419 44.3711 50.8149 44.3711C50.1938 44.3711 49.7134 44.6143 49.3735 45.1006C49.0337 45.5811 48.8638 46.3281 48.8638 47.3418ZM59.2788 42.4902L59.3579 43.5537C60.0317 42.7275 60.9429 42.3145 62.0913 42.3145C63.3159 42.3145 64.1567 42.7979 64.6138 43.7646C65.2817 42.7979 66.2339 42.3145 67.4702 42.3145C68.5015 42.3145 69.269 42.6162 69.7729 43.2197C70.2769 43.8174 70.5288 44.7197 70.5288 45.9268V52H67.98V45.9355C67.98 45.3965 67.8745 45.0039 67.6636 44.7578C67.4526 44.5059 67.0806 44.3799 66.5474 44.3799C65.7856 44.3799 65.2583 44.7432 64.9653 45.4697L64.9741 52H62.4341V45.9443C62.4341 45.3936 62.3257 44.9951 62.1089 44.749C61.8921 44.5029 61.5229 44.3799 61.0015 44.3799C60.2808 44.3799 59.7593 44.6787 59.437 45.2764V52H56.897V42.4902H59.2788ZM76.8657 52.1758C75.4712 52.1758 74.3345 51.748 73.4556 50.8926C72.5825 50.0371 72.146 48.8975 72.146 47.4736V47.2275C72.146 46.2725 72.3306 45.4199 72.6997 44.6699C73.0688 43.9141 73.5903 43.334 74.2642 42.9297C74.9438 42.5195 75.7173 42.3145 76.5845 42.3145C77.8853 42.3145 78.9077 42.7246 79.6519 43.5449C80.4019 44.3652 80.7769 45.5283 80.7769 47.0342V48.0713H74.7212C74.8032 48.6924 75.0493 49.1904 75.4595 49.5654C75.8755 49.9404 76.3999 50.1279 77.0327 50.1279C78.0112 50.1279 78.7759 49.7734 79.3267 49.0645L80.5747 50.4619C80.1938 51.001 79.6782 51.4229 79.0278 51.7275C78.3774 52.0264 77.6567 52.1758 76.8657 52.1758ZM76.5757 44.3711C76.0718 44.3711 75.6616 44.541 75.3452 44.8809C75.0347 45.2207 74.8354 45.707 74.7476 46.3398H78.2808V46.1377C78.269 45.5752 78.1167 45.1416 77.8237 44.8369C77.5308 44.5264 77.1147 44.3711 76.5757 44.3711Z" fill="white"/>
<path d="M44.9869 160.643C44.9869 160.145 44.8111 159.764 44.4595 159.5C44.108 159.23 43.4752 158.949 42.5611 158.656C41.647 158.357 40.9234 158.064 40.3902 157.777C38.9371 156.992 38.2105 155.935 38.2105 154.604C38.2105 153.913 38.4039 153.298 38.7906 152.759C39.1832 152.214 39.7427 151.789 40.4693 151.484C41.2017 151.18 42.022 151.027 42.9302 151.027C43.8443 151.027 44.6587 151.194 45.3736 151.528C46.0884 151.856 46.6421 152.322 47.0347 152.926C47.4332 153.529 47.6324 154.215 47.6324 154.982H44.9957C44.9957 154.396 44.8111 153.942 44.4419 153.62C44.0728 153.292 43.5543 153.128 42.8863 153.128C42.2418 153.128 41.7408 153.266 41.3834 153.541C41.0259 153.811 40.8472 154.168 40.8472 154.613C40.8472 155.029 41.0552 155.378 41.4712 155.659C41.8931 155.94 42.5113 156.204 43.3257 156.45C44.8257 156.901 45.9185 157.461 46.6041 158.129C47.2896 158.797 47.6324 159.629 47.6324 160.625C47.6324 161.732 47.2134 162.603 46.3755 163.235C45.5377 163.862 44.4097 164.176 42.9918 164.176C42.0074 164.176 41.1109 163.997 40.3023 163.64C39.4937 163.276 38.8755 162.781 38.4478 162.154C38.0259 161.527 37.815 160.801 37.815 159.975H40.4605C40.4605 161.387 41.3043 162.093 42.9918 162.093C43.6187 162.093 44.108 161.967 44.4595 161.715C44.8111 161.457 44.9869 161.1 44.9869 160.643ZM54.7691 164C54.6519 163.771 54.5669 163.487 54.5142 163.147C53.899 163.833 53.0992 164.176 52.1148 164.176C51.1832 164.176 50.4097 163.906 49.7945 163.367C49.1851 162.828 48.8804 162.148 48.8804 161.328C48.8804 160.32 49.2525 159.547 49.9966 159.008C50.7466 158.469 51.8277 158.196 53.2398 158.19H54.4087V157.646C54.4087 157.206 54.2945 156.854 54.066 156.591C53.8433 156.327 53.4888 156.195 53.0025 156.195C52.5748 156.195 52.2378 156.298 51.9918 156.503C51.7515 156.708 51.6314 156.989 51.6314 157.347H49.0914C49.0914 156.796 49.2613 156.286 49.6011 155.817C49.941 155.349 50.4214 154.982 51.0425 154.719C51.6636 154.449 52.3609 154.314 53.1343 154.314C54.3062 154.314 55.2349 154.61 55.9205 155.202C56.6119 155.788 56.9576 156.614 56.9576 157.681V161.803C56.9634 162.705 57.0894 163.388 57.3355 163.851V164H54.7691ZM52.6685 162.233C53.0435 162.233 53.3892 162.151 53.7056 161.987C54.022 161.817 54.2564 161.592 54.4087 161.311V159.676H53.4595C52.188 159.676 51.5113 160.115 51.4293 160.994L51.4205 161.144C51.4205 161.46 51.5318 161.721 51.7544 161.926C51.9771 162.131 52.2818 162.233 52.6685 162.233ZM61.5894 164H59.0406V150.5H61.5894V164ZM63.2945 159.175C63.2945 157.692 63.6255 156.512 64.2877 155.633C64.9556 154.754 65.8668 154.314 67.0211 154.314C67.9468 154.314 68.7115 154.66 69.315 155.352V150.5H71.8638V164H69.5699L69.4468 162.989C68.814 163.78 67.9996 164.176 67.0035 164.176C65.8843 164.176 64.9849 163.736 64.3052 162.857C63.6314 161.973 63.2945 160.745 63.2945 159.175ZM65.8345 159.359C65.8345 160.25 65.9898 160.933 66.3003 161.407C66.6109 161.882 67.0621 162.119 67.6539 162.119C68.439 162.119 68.9927 161.788 69.315 161.126V157.373C68.9986 156.711 68.4507 156.38 67.6714 156.38C66.4468 156.38 65.8345 157.373 65.8345 159.359ZM73.4371 159.157C73.4371 158.214 73.6187 157.373 73.982 156.635C74.3453 155.896 74.8668 155.325 75.5464 154.921C76.232 154.517 77.0259 154.314 77.9283 154.314C79.2115 154.314 80.2574 154.707 81.066 155.492C81.8804 156.277 82.3345 157.344 82.4283 158.691L82.4459 159.342C82.4459 160.801 82.0386 161.973 81.2242 162.857C80.4097 163.736 79.3169 164.176 77.9459 164.176C76.5748 164.176 75.4791 163.736 74.6587 162.857C73.8443 161.979 73.4371 160.783 73.4371 159.271V159.157ZM75.9771 159.342C75.9771 160.244 76.147 160.936 76.4869 161.416C76.8267 161.891 77.313 162.128 77.9459 162.128C78.5611 162.128 79.0416 161.894 79.3873 161.425C79.733 160.95 79.9058 160.194 79.9058 159.157C79.9058 158.272 79.733 157.587 79.3873 157.101C79.0416 156.614 78.5552 156.371 77.9283 156.371C77.3072 156.371 76.8267 156.614 76.4869 157.101C76.147 157.581 75.9771 158.328 75.9771 159.342Z" fill="white"/>
<path d="M39.4382 126.605L36.3718 125.736L36.9479 123.969L39.985 125.189L39.7897 121.781H41.7038L41.5085 125.258L44.4675 124.057L45.0436 125.844L41.9186 126.713L43.9694 129.311L42.4167 130.414L40.6393 127.562L38.8815 130.316L37.3288 129.262L39.4382 126.605ZM53.4811 126.605L50.4147 125.736L50.9909 123.969L54.028 125.189L53.8327 121.781H55.7468L55.5514 125.258L58.5104 124.057L59.0866 125.844L55.9616 126.713L58.0124 129.311L56.4596 130.414L54.6823 127.562L52.9245 130.316L51.3718 129.262L53.4811 126.605ZM67.5241 126.605L64.4577 125.736L65.0339 123.969L68.071 125.189L67.8757 121.781H69.7897L69.5944 125.258L72.5534 124.057L73.1296 125.844L70.0046 126.713L72.0553 129.311L70.5026 130.414L68.7253 127.562L66.9675 130.316L65.4147 129.262L67.5241 126.605ZM81.5671 126.605L78.5007 125.736L79.0768 123.969L82.1139 125.189L81.9186 121.781H83.8327L83.6374 125.258L86.5964 124.057L87.1725 125.844L84.0475 126.713L86.0983 129.311L84.5456 130.414L82.7682 127.562L81.0104 130.316L79.4577 129.262L81.5671 126.605Z" fill="white"/>
<path d="M123.819 126.605L120.753 125.736L121.329 123.969L124.366 125.189L124.171 121.781H126.085L125.889 125.258L128.848 124.057L129.424 125.844L126.299 126.713L128.35 129.311L126.798 130.414L125.02 127.562L123.262 130.316L121.71 129.262L123.819 126.605ZM137.862 126.605L134.796 125.736L135.372 123.969L138.409 125.189L138.214 121.781H140.128L139.932 125.258L142.891 124.057L143.467 125.844L140.342 126.713L142.393 129.311L140.84 130.414L139.063 127.562L137.305 130.316L135.753 129.262L137.862 126.605ZM151.905 126.605L148.839 125.736L149.415 123.969L152.452 125.189L152.257 121.781H154.171L153.975 125.258L156.934 124.057L157.51 125.844L154.385 126.713L156.436 129.311L154.883 130.414L153.106 127.562L151.348 130.316L149.796 129.262L151.905 126.605ZM165.948 126.605L162.882 125.736L163.458 123.969L166.495 125.189L166.299 121.781H168.214L168.018 125.258L170.977 124.057L171.553 125.844L168.428 126.713L170.479 129.311L168.926 130.414L167.149 127.562L165.391 130.316L163.839 129.262L165.948 126.605Z" fill="white"/>
<path d="M207.145 126.605L204.079 125.736L204.655 123.969L207.692 125.189L207.497 121.781H209.411L209.216 125.258L212.174 124.057L212.751 125.844L209.626 126.713L211.676 129.311L210.124 130.414L208.346 127.562L206.589 130.316L205.036 129.262L207.145 126.605ZM221.188 126.605L218.122 125.736L218.698 123.969L221.735 125.189L221.54 121.781H223.454L223.258 125.258L226.217 124.057L226.794 125.844L223.669 126.713L225.719 129.311L224.167 130.414L222.389 127.562L220.632 130.316L219.079 129.262L221.188 126.605ZM235.231 126.605L232.165 125.736L232.741 123.969L235.778 125.189L235.583 121.781H237.497L237.301 125.258L240.26 124.057L240.837 125.844L237.712 126.713L239.762 129.311L238.21 130.414L236.432 127.562L234.674 130.316L233.122 129.262L235.231 126.605ZM249.274 126.605L246.208 125.736L246.784 123.969L249.821 125.189L249.626 121.781H251.54L251.344 125.258L254.303 124.057L254.88 125.844L251.755 126.713L253.805 129.311L252.253 130.414L250.475 127.562L248.717 130.316L247.165 129.262L249.274 126.605Z" fill="white"/>
<path d="M302.571 127.641H304.075C304.791 127.641 305.322 127.462 305.667 127.104C306.012 126.745 306.185 126.27 306.185 125.678C306.185 125.105 306.012 124.659 305.667 124.34C305.329 124.021 304.86 123.861 304.261 123.861C303.72 123.861 303.268 124.011 302.903 124.311C302.539 124.604 302.357 124.988 302.357 125.463H299.534C299.534 124.721 299.733 124.057 300.13 123.471C300.534 122.878 301.094 122.416 301.81 122.084C302.532 121.752 303.327 121.586 304.192 121.586C305.696 121.586 306.875 121.947 307.728 122.67C308.581 123.386 309.007 124.376 309.007 125.639C309.007 126.29 308.808 126.889 308.411 127.436C308.014 127.982 307.493 128.402 306.849 128.695C307.65 128.982 308.245 129.411 308.636 129.984C309.033 130.557 309.232 131.234 309.232 132.016C309.232 133.279 308.769 134.291 307.845 135.053C306.927 135.814 305.709 136.195 304.192 136.195C302.773 136.195 301.611 135.821 300.706 135.072C299.808 134.324 299.359 133.334 299.359 132.104H302.181C302.181 132.637 302.379 133.074 302.776 133.412C303.18 133.751 303.675 133.92 304.261 133.92C304.931 133.92 305.456 133.744 305.833 133.393C306.217 133.035 306.409 132.562 306.409 131.977C306.409 130.557 305.628 129.848 304.066 129.848H302.571V127.641ZM319.534 130.648H321.146V132.924H319.534V136H316.712V132.924H310.882L310.755 131.146L316.683 121.781H319.534V130.648ZM313.567 130.648H316.712V125.629L316.526 125.951L313.567 130.648ZM329.271 130.316C328.535 131.039 327.676 131.4 326.692 131.4C325.436 131.4 324.43 130.971 323.675 130.111C322.92 129.245 322.542 128.08 322.542 126.615C322.542 125.684 322.744 124.831 323.148 124.057C323.558 123.275 324.127 122.67 324.857 122.24C325.586 121.804 326.406 121.586 327.317 121.586C328.255 121.586 329.088 121.82 329.817 122.289C330.547 122.758 331.113 123.432 331.517 124.311C331.92 125.189 332.125 126.195 332.132 127.328V128.373C332.132 130.743 331.543 132.605 330.364 133.959C329.186 135.313 327.516 136.036 325.355 136.127L324.661 136.137V133.783L325.286 133.773C327.741 133.663 329.069 132.51 329.271 130.316ZM327.386 129.242C327.842 129.242 328.232 129.125 328.558 128.891C328.89 128.656 329.14 128.373 329.31 128.041V126.879C329.31 125.922 329.127 125.18 328.763 124.652C328.398 124.125 327.91 123.861 327.298 123.861C326.732 123.861 326.266 124.122 325.901 124.643C325.537 125.157 325.355 125.805 325.355 126.586C325.355 127.361 325.53 127.999 325.882 128.5C326.24 128.995 326.741 129.242 327.386 129.242ZM343.9 136H334.153V134.066L338.753 129.164C339.385 128.474 339.85 127.872 340.15 127.357C340.456 126.843 340.609 126.355 340.609 125.893C340.609 125.261 340.449 124.766 340.13 124.408C339.811 124.044 339.355 123.861 338.763 123.861C338.125 123.861 337.62 124.083 337.249 124.525C336.885 124.962 336.702 125.538 336.702 126.254H333.87C333.87 125.388 334.075 124.597 334.485 123.881C334.902 123.165 335.488 122.605 336.243 122.201C336.998 121.791 337.855 121.586 338.812 121.586C340.276 121.586 341.413 121.938 342.22 122.641C343.034 123.344 343.441 124.337 343.441 125.619C343.441 126.322 343.258 127.038 342.894 127.768C342.529 128.497 341.904 129.346 341.019 130.316L337.786 133.725H343.9V136Z" fill="white"/>
<path d="M54.7583 99H49.4849V88.0312H39.2017V99H33.9282V73.4062H39.2017V83.7773H49.4849V73.4062H54.7583V99ZM70.438 97.0664C69.1841 98.5898 67.4497 99.3516 65.2349 99.3516C63.1958 99.3516 61.6372 98.7656 60.5591 97.5938C59.4927 96.4219 58.9478 94.7051 58.9243 92.4434V79.9805H64.0044V92.2676C64.0044 94.248 64.9067 95.2383 66.7114 95.2383C68.4341 95.2383 69.6177 94.6406 70.2622 93.4453V79.9805H75.3599V99H70.5786L70.438 97.0664ZM84.5532 99H79.4556V72H84.5532V99ZM95.6626 91.3711L93.8345 93.1992V99H88.7544V72H93.8345V86.959L94.8188 85.6934L99.688 79.9805H105.788L98.9146 87.9082L106.385 99H100.549L95.6626 91.3711Z" fill="white"/>
<path d="M42.0962 198.672H38.3618V207H33.6743V184.25H42.1274C44.8149 184.25 46.8879 184.849 48.3462 186.047C49.8045 187.245 50.5337 188.938 50.5337 191.125C50.5337 192.677 50.1951 193.974 49.5181 195.016C48.8514 196.047 47.8358 196.87 46.4712 197.484L51.3931 206.781V207H46.3618L42.0962 198.672ZM38.3618 194.875H42.1431C43.3201 194.875 44.2316 194.578 44.8774 193.984C45.5233 193.38 45.8462 192.552 45.8462 191.5C45.8462 190.427 45.5389 189.583 44.9243 188.969C44.3201 188.354 43.3879 188.047 42.1274 188.047H38.3618V194.875ZM64.4243 201.016C64.4243 200.161 64.1847 199.484 63.7056 198.984C63.2368 198.474 62.4347 198.005 61.2993 197.578C60.1639 197.151 59.1847 196.729 58.3618 196.312C57.5389 195.885 56.8306 195.401 56.2368 194.859C55.6535 194.307 55.1951 193.661 54.8618 192.922C54.5389 192.182 54.3774 191.302 54.3774 190.281C54.3774 188.521 54.9399 187.078 56.0649 185.953C57.1899 184.828 58.6847 184.172 60.5493 183.984V180.641H63.0493V184.031C64.8931 184.292 66.3358 185.062 67.3774 186.344C68.4191 187.615 68.9399 189.266 68.9399 191.297H64.4243C64.4243 190.047 64.1639 189.115 63.6431 188.5C63.1326 187.875 62.4451 187.562 61.5806 187.562C60.7264 187.562 60.0649 187.807 59.5962 188.297C59.1274 188.776 58.8931 189.443 58.8931 190.297C58.8931 191.089 59.1222 191.724 59.5806 192.203C60.0389 192.682 60.8879 193.172 62.1274 193.672C63.3774 194.172 64.4035 194.646 65.2056 195.094C66.0076 195.531 66.6847 196.031 67.2368 196.594C67.7889 197.146 68.2108 197.781 68.5024 198.5C68.7941 199.208 68.9399 200.036 68.9399 200.984C68.9399 202.755 68.3879 204.193 67.2837 205.297C66.1795 206.401 64.6587 207.052 62.7212 207.25V210.359H60.2368V207.266C58.1014 207.036 56.4451 206.281 55.2681 205C54.1014 203.708 53.5181 201.995 53.5181 199.859H58.0337C58.0337 201.099 58.3254 202.052 58.9087 202.719C59.5024 203.375 60.3514 203.703 61.4556 203.703C62.3722 203.703 63.0962 203.464 63.6274 202.984C64.1587 202.495 64.4243 201.839 64.4243 201.016ZM95.5649 207H79.9712V203.906L87.3306 196.062C88.341 194.958 89.0858 193.995 89.5649 193.172C90.0545 192.349 90.2993 191.568 90.2993 190.828C90.2993 189.818 90.0441 189.026 89.5337 188.453C89.0233 187.87 88.2941 187.578 87.3462 187.578C86.3254 187.578 85.5181 187.932 84.9243 188.641C84.341 189.339 84.0493 190.26 84.0493 191.406H79.5181C79.5181 190.021 79.8462 188.755 80.5024 187.609C81.1691 186.464 82.1066 185.568 83.3149 184.922C84.5233 184.266 85.8931 183.938 87.4243 183.938C89.7681 183.938 91.5858 184.5 92.8774 185.625C94.1795 186.75 94.8306 188.339 94.8306 190.391C94.8306 191.516 94.5389 192.661 93.9556 193.828C93.3722 194.995 92.3722 196.354 90.9556 197.906L85.7837 203.359H95.5649V207ZM99.0181 195.812L100.331 184.25H113.081V188.016H104.034L103.471 192.906C104.544 192.333 105.685 192.047 106.893 192.047C109.06 192.047 110.758 192.719 111.987 194.062C113.216 195.406 113.831 197.286 113.831 199.703C113.831 201.172 113.518 202.49 112.893 203.656C112.278 204.812 111.393 205.714 110.237 206.359C109.081 206.995 107.716 207.312 106.143 207.312C104.768 207.312 103.492 207.036 102.315 206.484C101.138 205.922 100.206 205.135 99.5181 204.125C98.841 203.115 98.4816 201.964 98.4399 200.672H102.909C103.002 201.62 103.331 202.359 103.893 202.891C104.466 203.411 105.211 203.672 106.127 203.672C107.148 203.672 107.935 203.307 108.487 202.578C109.039 201.839 109.315 200.797 109.315 199.453C109.315 198.161 108.997 197.172 108.362 196.484C107.726 195.797 106.825 195.453 105.659 195.453C104.586 195.453 103.716 195.734 103.049 196.297L102.612 196.703L99.0181 195.812ZM132.034 197.594C132.034 200.74 131.383 203.146 130.081 204.812C128.778 206.479 126.872 207.312 124.362 207.312C121.883 207.312 119.987 206.495 118.674 204.859C117.362 203.224 116.69 200.88 116.659 197.828V193.641C116.659 190.464 117.315 188.052 118.627 186.406C119.95 184.76 121.851 183.938 124.331 183.938C126.81 183.938 128.706 184.755 130.018 186.391C131.331 188.016 132.002 190.354 132.034 193.406V197.594ZM127.518 193C127.518 191.115 127.258 189.745 126.737 188.891C126.226 188.026 125.424 187.594 124.331 187.594C123.268 187.594 122.482 188.005 121.971 188.828C121.471 189.641 121.206 190.917 121.174 192.656V198.188C121.174 200.042 121.424 201.422 121.924 202.328C122.435 203.224 123.247 203.672 124.362 203.672C125.466 203.672 126.263 203.24 126.752 202.375C127.242 201.51 127.497 200.188 127.518 198.406V193Z" fill="white"/>
<path d="M395.653 53.7778C395.653 55 396.708 56 397.997 56H407.372C408.662 56 409.716 55 409.716 53.7778V40.4444H395.653V53.7778ZM410.888 37.1111H406.786L405.615 36H399.755L398.583 37.1111H394.481V39.3333H410.888V37.1111Z" fill="#E5E5E5"/>
</svg>
