<svg width="932" height="406" viewBox="0 0 932 406" fill="none" xmlns="http://www.w3.org/2000/svg">
<rect width="932" height="406" rx="8" fill="white"/>
<line x1="26.9994" y1="56.5" x2="907.999" y2="55.5" stroke="#9DA0B4"/>
<line x1="24.9994" y1="158.5" x2="905.999" y2="157.5" stroke="#9DA0B4"/>
<line x1="22.9994" y1="311.5" x2="903.999" y2="310.5" stroke="#9DA0B4"/>
<line x1="27.9994" y1="107.5" x2="908.999" y2="106.5" stroke="#9DA0B4"/>
<line x1="25.9994" y1="260.5" x2="906.999" y2="259.5" stroke="#9DA0B4"/>
<line x1="25.9994" y1="209.5" x2="906.999" y2="208.5" stroke="#9DA0B4"/>
<rect x="143.436" y="56" width="28.9199" height="257" rx="10" fill="#5BCBF8"/>
<rect x="181.031" y="37" width="28.9199" height="276" rx="10" fill="#625BE6"/>
<rect x="238.871" y="61" width="28.9199" height="252" rx="10" fill="#5BCBF8"/>
<rect x="276.467" y="77" width="28.9199" height="236" rx="10" fill="#625BE6"/>
<rect x="334.307" y="74" width="28.9199" height="239" rx="10" fill="#5BCBF8"/>
<rect x="371.903" y="47" width="28.9199" height="266" rx="10" fill="#625BE6"/>
<rect x="429.742" y="127" width="28.9199" height="186" rx="10" fill="#5BCBF8"/>
<rect x="467.338" y="107" width="28.9199" height="206" rx="10" fill="#625BE6"/>
<rect x="525.178" y="77" width="28.9199" height="236" rx="10" fill="#5BCBF8"/>
<rect x="562.773" y="72" width="28.9199" height="241" rx="10" fill="#625BE6"/>
<rect x="620.613" y="47" width="28.9199" height="266" rx="10" fill="#5BCBF8"/>
<rect x="658.209" y="57" width="28.9199" height="256" rx="10" fill="#625BE6"/>
<rect x="811.484" y="37" width="28.9199" height="276" rx="10" fill="#5BCBF8"/>
<rect x="849.08" y="47" width="28.9199" height="266" rx="10" fill="#625BE6"/>
<rect x="716.049" y="27" width="28.9199" height="286" rx="10" fill="#5BCBF8"/>
<rect x="753.645" y="97" width="28.9199" height="216" rx="10" fill="#625BE6"/>
<rect x="48" y="57" width="28.9199" height="256" rx="10" fill="#5BCBF8"/>
<rect x="85.5959" y="97" width="28.9199" height="216" rx="10" fill="#625BE6"/>
<path d="M369.832 385H368.488V373.832H372.936C373.917 373.832 374.68 374.104 375.224 374.648C375.779 375.192 376.056 375.976 376.056 377C376.056 377.821 375.864 378.499 375.48 379.032C375.107 379.555 374.552 379.901 373.816 380.072L376.376 385H374.856L372.44 380.2H369.832V385ZM372.936 379.048C373.469 379.048 373.88 378.909 374.168 378.632C374.467 378.355 374.616 377.96 374.616 377.448V376.616C374.616 376.104 374.467 375.709 374.168 375.432C373.88 375.155 373.469 375.016 372.936 375.016H369.832V379.048H372.936ZM381.904 385.192C381.339 385.192 380.827 385.091 380.368 384.888C379.92 384.685 379.531 384.397 379.2 384.024C378.88 383.64 378.629 383.187 378.448 382.664C378.277 382.131 378.192 381.533 378.192 380.872C378.192 380.221 378.277 379.629 378.448 379.096C378.629 378.563 378.88 378.109 379.2 377.736C379.531 377.352 379.92 377.059 380.368 376.856C380.827 376.653 381.339 376.552 381.904 376.552C382.459 376.552 382.955 376.653 383.392 376.856C383.829 377.059 384.203 377.341 384.512 377.704C384.821 378.056 385.056 378.477 385.216 378.968C385.387 379.459 385.472 379.997 385.472 380.584V381.192H379.536V381.576C379.536 381.928 379.589 382.259 379.696 382.568C379.813 382.867 379.973 383.128 380.176 383.352C380.389 383.576 380.645 383.752 380.944 383.88C381.253 384.008 381.6 384.072 381.984 384.072C382.507 384.072 382.96 383.949 383.344 383.704C383.739 383.459 384.043 383.107 384.256 382.648L385.168 383.304C384.901 383.869 384.485 384.328 383.92 384.68C383.355 385.021 382.683 385.192 381.904 385.192ZM381.904 377.624C381.552 377.624 381.232 377.688 380.944 377.816C380.656 377.933 380.405 378.104 380.192 378.328C379.989 378.552 379.829 378.819 379.712 379.128C379.595 379.427 379.536 379.757 379.536 380.12V380.232H384.096V380.056C384.096 379.32 383.893 378.733 383.488 378.296C383.093 377.848 382.565 377.624 381.904 377.624ZM391.093 385.192C390.517 385.192 390 385.091 389.541 384.888C389.083 384.685 388.693 384.397 388.373 384.024C388.064 383.651 387.824 383.197 387.653 382.664C387.493 382.131 387.413 381.533 387.413 380.872C387.413 380.211 387.493 379.613 387.653 379.08C387.824 378.547 388.064 378.093 388.373 377.72C388.693 377.347 389.083 377.059 389.541 376.856C390 376.653 390.517 376.552 391.093 376.552C391.915 376.552 392.571 376.733 393.061 377.096C393.563 377.448 393.936 377.912 394.181 378.488L393.109 379.032C392.96 378.605 392.715 378.275 392.373 378.04C392.032 377.805 391.605 377.688 391.093 377.688C390.709 377.688 390.373 377.752 390.085 377.88C389.797 377.997 389.557 378.168 389.365 378.392C389.173 378.605 389.029 378.867 388.933 379.176C388.837 379.475 388.789 379.805 388.789 380.168V381.576C388.789 382.301 388.981 382.899 389.365 383.368C389.76 383.827 390.336 384.056 391.093 384.056C392.128 384.056 392.875 383.576 393.333 382.616L394.261 383.24C393.995 383.837 393.595 384.312 393.061 384.664C392.539 385.016 391.883 385.192 391.093 385.192ZM399.518 385.192C398.953 385.192 398.441 385.091 397.982 384.888C397.534 384.685 397.145 384.397 396.814 384.024C396.494 383.64 396.244 383.187 396.062 382.664C395.892 382.131 395.806 381.533 395.806 380.872C395.806 380.221 395.892 379.629 396.062 379.096C396.244 378.563 396.494 378.109 396.814 377.736C397.145 377.352 397.534 377.059 397.982 376.856C398.441 376.653 398.953 376.552 399.518 376.552C400.073 376.552 400.569 376.653 401.006 376.856C401.444 377.059 401.817 377.341 402.126 377.704C402.436 378.056 402.67 378.477 402.83 378.968C403.001 379.459 403.086 379.997 403.086 380.584V381.192H397.15V381.576C397.15 381.928 397.204 382.259 397.31 382.568C397.428 382.867 397.588 383.128 397.79 383.352C398.004 383.576 398.26 383.752 398.558 383.88C398.868 384.008 399.214 384.072 399.598 384.072C400.121 384.072 400.574 383.949 400.958 383.704C401.353 383.459 401.657 383.107 401.87 382.648L402.782 383.304C402.516 383.869 402.1 384.328 401.534 384.68C400.969 385.021 400.297 385.192 399.518 385.192ZM399.518 377.624C399.166 377.624 398.846 377.688 398.558 377.816C398.27 377.933 398.02 378.104 397.806 378.328C397.604 378.552 397.444 378.819 397.326 379.128C397.209 379.427 397.15 379.757 397.15 380.12V380.232H401.71V380.056C401.71 379.32 401.508 378.733 401.102 378.296C400.708 377.848 400.18 377.624 399.518 377.624ZM406.276 374.808C405.998 374.808 405.796 374.744 405.668 374.616C405.55 374.477 405.492 374.301 405.492 374.088V373.88C405.492 373.667 405.55 373.496 405.668 373.368C405.796 373.229 405.998 373.16 406.276 373.16C406.553 373.16 406.75 373.229 406.868 373.368C406.996 373.496 407.06 373.667 407.06 373.88V374.088C407.06 374.301 406.996 374.477 406.868 374.616C406.75 374.744 406.553 374.808 406.276 374.808ZM405.636 376.744H406.916V385H405.636V376.744ZM411.9 385C411.452 385 411.11 384.877 410.876 384.632C410.652 384.376 410.54 384.045 410.54 383.64V377.864H409.18V376.744H409.948C410.225 376.744 410.412 376.691 410.508 376.584C410.614 376.467 410.668 376.269 410.668 375.992V374.456H411.82V376.744H413.628V377.864H411.82V383.88H413.5V385H411.9ZM422.125 385C421.645 385 421.298 384.872 421.085 384.616C420.882 384.36 420.754 384.04 420.701 383.656H420.621C420.44 384.168 420.141 384.552 419.725 384.808C419.309 385.064 418.813 385.192 418.237 385.192C417.362 385.192 416.68 384.968 416.189 384.52C415.709 384.072 415.469 383.464 415.469 382.696C415.469 381.917 415.752 381.32 416.317 380.904C416.893 380.488 417.784 380.28 418.989 380.28H420.621V379.464C420.621 378.877 420.461 378.429 420.141 378.12C419.821 377.811 419.33 377.656 418.669 377.656C418.168 377.656 417.746 377.768 417.405 377.992C417.074 378.216 416.797 378.515 416.573 378.888L415.805 378.168C416.029 377.72 416.386 377.341 416.877 377.032C417.368 376.712 417.986 376.552 418.733 376.552C419.736 376.552 420.514 376.797 421.069 377.288C421.624 377.779 421.901 378.461 421.901 379.336V383.88H422.845V385H422.125ZM418.445 384.104C418.765 384.104 419.058 384.067 419.325 383.992C419.592 383.917 419.821 383.811 420.013 383.672C420.205 383.533 420.354 383.373 420.461 383.192C420.568 383.011 420.621 382.813 420.621 382.6V381.24H418.925C418.189 381.24 417.65 381.347 417.309 381.56C416.978 381.773 416.813 382.083 416.813 382.488V382.824C416.813 383.229 416.957 383.544 417.245 383.768C417.544 383.992 417.944 384.104 418.445 384.104Z" fill="#263238"/>
<path d="M477.488 373.832H481.232C481.925 373.832 482.555 373.949 483.12 374.184C483.685 374.419 484.165 374.771 484.56 375.24C484.965 375.699 485.275 376.28 485.488 376.984C485.701 377.677 485.808 378.488 485.808 379.416C485.808 380.344 485.701 381.16 485.488 381.864C485.275 382.557 484.965 383.139 484.56 383.608C484.165 384.067 483.685 384.413 483.12 384.648C482.555 384.883 481.925 385 481.232 385H477.488V373.832ZM481.232 383.816C481.691 383.816 482.112 383.741 482.496 383.592C482.88 383.432 483.211 383.203 483.488 382.904C483.765 382.605 483.979 382.243 484.128 381.816C484.288 381.379 484.368 380.883 484.368 380.328V378.504C484.368 377.949 484.288 377.459 484.128 377.032C483.979 376.595 483.765 376.227 483.488 375.928C483.211 375.629 482.88 375.405 482.496 375.256C482.112 375.096 481.691 375.016 481.232 375.016H478.832V383.816H481.232ZM491.638 385.192C491.073 385.192 490.561 385.091 490.102 384.888C489.654 384.685 489.265 384.397 488.934 384.024C488.614 383.64 488.364 383.187 488.182 382.664C488.012 382.131 487.926 381.533 487.926 380.872C487.926 380.221 488.012 379.629 488.182 379.096C488.364 378.563 488.614 378.109 488.934 377.736C489.265 377.352 489.654 377.059 490.102 376.856C490.561 376.653 491.073 376.552 491.638 376.552C492.193 376.552 492.689 376.653 493.126 376.856C493.564 377.059 493.937 377.341 494.246 377.704C494.556 378.056 494.79 378.477 494.95 378.968C495.121 379.459 495.206 379.997 495.206 380.584V381.192H489.27V381.576C489.27 381.928 489.324 382.259 489.43 382.568C489.548 382.867 489.708 383.128 489.91 383.352C490.124 383.576 490.38 383.752 490.678 383.88C490.988 384.008 491.334 384.072 491.718 384.072C492.241 384.072 492.694 383.949 493.078 383.704C493.473 383.459 493.777 383.107 493.99 382.648L494.902 383.304C494.636 383.869 494.22 384.328 493.654 384.68C493.089 385.021 492.417 385.192 491.638 385.192ZM491.638 377.624C491.286 377.624 490.966 377.688 490.678 377.816C490.39 377.933 490.14 378.104 489.926 378.328C489.724 378.552 489.564 378.819 489.446 379.128C489.329 379.427 489.27 379.757 489.27 380.12V380.232H493.83V380.056C493.83 379.32 493.628 378.733 493.222 378.296C492.828 377.848 492.3 377.624 491.638 377.624ZM500.236 385.192C499.468 385.192 498.822 385.048 498.3 384.76C497.788 384.461 497.345 384.067 496.972 383.576L497.884 382.84C498.204 383.245 498.561 383.56 498.956 383.784C499.35 383.997 499.809 384.104 500.332 384.104C500.876 384.104 501.297 383.987 501.596 383.752C501.905 383.517 502.06 383.187 502.06 382.76C502.06 382.44 501.953 382.168 501.74 381.944C501.537 381.709 501.164 381.549 500.62 381.464L499.964 381.368C499.58 381.315 499.228 381.235 498.908 381.128C498.588 381.011 498.305 380.861 498.06 380.68C497.825 380.488 497.638 380.253 497.5 379.976C497.372 379.699 497.308 379.368 497.308 378.984C497.308 378.579 497.382 378.227 497.532 377.928C497.681 377.619 497.884 377.363 498.14 377.16C498.406 376.957 498.721 376.808 499.084 376.712C499.446 376.605 499.836 376.552 500.252 376.552C500.924 376.552 501.484 376.669 501.932 376.904C502.39 377.139 502.79 377.464 503.132 377.88L502.284 378.648C502.102 378.392 501.836 378.163 501.484 377.96C501.132 377.747 500.689 377.64 500.156 377.64C499.622 377.64 499.217 377.757 498.94 377.992C498.673 378.216 498.54 378.525 498.54 378.92C498.54 379.325 498.673 379.619 498.94 379.8C499.217 379.981 499.612 380.115 500.124 380.2L500.764 380.296C501.681 380.435 502.332 380.701 502.716 381.096C503.1 381.48 503.292 381.987 503.292 382.616C503.292 383.416 503.02 384.045 502.476 384.504C501.932 384.963 501.185 385.192 500.236 385.192ZM505.992 376.744H507.272V378.088H507.336C507.55 377.565 507.859 377.181 508.264 376.936C508.68 376.68 509.176 376.552 509.753 376.552C510.265 376.552 510.729 376.653 511.144 376.856C511.56 377.059 511.912 377.347 512.201 377.72C512.499 378.093 512.723 378.547 512.873 379.08C513.033 379.613 513.113 380.211 513.113 380.872C513.113 381.533 513.033 382.131 512.873 382.664C512.723 383.197 512.499 383.651 512.201 384.024C511.912 384.397 511.56 384.685 511.144 384.888C510.729 385.091 510.265 385.192 509.753 385.192C508.632 385.192 507.827 384.68 507.336 383.656H507.272V388.2H505.992V376.744ZM509.4 384.04C510.126 384.04 510.697 383.816 511.113 383.368C511.529 382.909 511.737 382.312 511.737 381.576V380.168C511.737 379.432 511.529 378.84 511.113 378.392C510.697 377.933 510.126 377.704 509.4 377.704C509.113 377.704 508.835 377.747 508.568 377.832C508.312 377.907 508.088 378.013 507.896 378.152C507.704 378.291 507.55 378.461 507.432 378.664C507.326 378.856 507.272 379.064 507.272 379.288V382.36C507.272 382.627 507.326 382.867 507.432 383.08C507.55 383.283 507.704 383.459 507.896 383.608C508.088 383.747 508.312 383.853 508.568 383.928C508.835 384.003 509.113 384.04 509.4 384.04ZM518.818 385.192C518.252 385.192 517.74 385.091 517.282 384.888C516.834 384.685 516.444 384.397 516.114 384.024C515.794 383.64 515.543 383.187 515.362 382.664C515.191 382.131 515.106 381.533 515.106 380.872C515.106 380.221 515.191 379.629 515.362 379.096C515.543 378.563 515.794 378.109 516.114 377.736C516.444 377.352 516.834 377.059 517.282 376.856C517.74 376.653 518.252 376.552 518.818 376.552C519.372 376.552 519.868 376.653 520.306 376.856C520.743 377.059 521.116 377.341 521.426 377.704C521.735 378.056 521.97 378.477 522.13 378.968C522.3 379.459 522.386 379.997 522.386 380.584V381.192H516.45V381.576C516.45 381.928 516.503 382.259 516.61 382.568C516.727 382.867 516.887 383.128 517.09 383.352C517.303 383.576 517.559 383.752 517.858 383.88C518.167 384.008 518.514 384.072 518.898 384.072C519.42 384.072 519.874 383.949 520.258 383.704C520.652 383.459 520.956 383.107 521.17 382.648L522.082 383.304C521.815 383.869 521.399 384.328 520.834 384.68C520.268 385.021 519.596 385.192 518.818 385.192ZM518.818 377.624C518.466 377.624 518.146 377.688 517.858 377.816C517.57 377.933 517.319 378.104 517.106 378.328C516.903 378.552 516.743 378.819 516.626 379.128C516.508 379.427 516.45 379.757 516.45 380.12V380.232H521.01V380.056C521.01 379.32 520.807 378.733 520.402 378.296C520.007 377.848 519.479 377.624 518.818 377.624ZM527.415 385.192C526.647 385.192 526.002 385.048 525.479 384.76C524.967 384.461 524.524 384.067 524.151 383.576L525.063 382.84C525.383 383.245 525.74 383.56 526.135 383.784C526.53 383.997 526.988 384.104 527.511 384.104C528.055 384.104 528.476 383.987 528.775 383.752C529.084 383.517 529.239 383.187 529.239 382.76C529.239 382.44 529.132 382.168 528.919 381.944C528.716 381.709 528.343 381.549 527.799 381.464L527.143 381.368C526.759 381.315 526.407 381.235 526.087 381.128C525.767 381.011 525.484 380.861 525.239 380.68C525.004 380.488 524.818 380.253 524.679 379.976C524.551 379.699 524.487 379.368 524.487 378.984C524.487 378.579 524.562 378.227 524.711 377.928C524.86 377.619 525.063 377.363 525.319 377.16C525.586 376.957 525.9 376.808 526.263 376.712C526.626 376.605 527.015 376.552 527.431 376.552C528.103 376.552 528.663 376.669 529.111 376.904C529.57 377.139 529.97 377.464 530.311 377.88L529.463 378.648C529.282 378.392 529.015 378.163 528.663 377.96C528.311 377.747 527.868 377.64 527.335 377.64C526.802 377.64 526.396 377.757 526.119 377.992C525.852 378.216 525.719 378.525 525.719 378.92C525.719 379.325 525.852 379.619 526.119 379.8C526.396 379.981 526.791 380.115 527.303 380.2L527.943 380.296C528.86 380.435 529.511 380.701 529.895 381.096C530.279 381.48 530.471 381.987 530.471 382.616C530.471 383.416 530.199 384.045 529.655 384.504C529.111 384.963 528.364 385.192 527.415 385.192ZM539.172 385C538.692 385 538.345 384.872 538.132 384.616C537.929 384.36 537.801 384.04 537.748 383.656H537.668C537.487 384.168 537.188 384.552 536.772 384.808C536.356 385.064 535.86 385.192 535.284 385.192C534.409 385.192 533.727 384.968 533.236 384.52C532.756 384.072 532.516 383.464 532.516 382.696C532.516 381.917 532.799 381.32 533.364 380.904C533.94 380.488 534.831 380.28 536.036 380.28H537.668V379.464C537.668 378.877 537.508 378.429 537.188 378.12C536.868 377.811 536.377 377.656 535.716 377.656C535.215 377.656 534.793 377.768 534.452 377.992C534.121 378.216 533.844 378.515 533.62 378.888L532.852 378.168C533.076 377.72 533.433 377.341 533.924 377.032C534.415 376.712 535.033 376.552 535.78 376.552C536.783 376.552 537.561 376.797 538.116 377.288C538.671 377.779 538.948 378.461 538.948 379.336V383.88H539.892V385H539.172ZM535.492 384.104C535.812 384.104 536.105 384.067 536.372 383.992C536.639 383.917 536.868 383.811 537.06 383.672C537.252 383.533 537.401 383.373 537.508 383.192C537.615 383.011 537.668 382.813 537.668 382.6V381.24H535.972C535.236 381.24 534.697 381.347 534.356 381.56C534.025 381.773 533.86 382.083 533.86 382.488V382.824C533.86 383.229 534.004 383.544 534.292 383.768C534.591 383.992 534.991 384.104 535.492 384.104Z" fill="#263238"/>
<circle cx="464" cy="379" r="5" fill="#625BE6"/>
<circle cx="355" cy="379" r="5" fill="#5BCBF8"/>
<path d="M71.6874 330.275H71.5974L70.5354 332.381L67.5294 337.853L64.5234 332.381L63.4614 330.275H63.3714V340.859H61.8954V328.295H63.9114L67.5114 335.063H67.6014L71.2194 328.295H73.1634V340.859H71.6874V330.275ZM83.3589 340.859C82.8189 340.859 82.4289 340.715 82.1889 340.427C81.9609 340.139 81.8169 339.779 81.7569 339.347H81.6669C81.4629 339.923 81.1269 340.355 80.6589 340.643C80.1909 340.931 79.6329 341.075 78.9849 341.075C78.0009 341.075 77.2329 340.823 76.6809 340.319C76.1409 339.815 75.8709 339.131 75.8709 338.267C75.8709 337.391 76.1889 336.719 76.8249 336.251C77.4729 335.783 78.4749 335.549 79.8309 335.549H81.6669V334.631C81.6669 333.971 81.4869 333.467 81.1269 333.119C80.7669 332.771 80.2149 332.597 79.4709 332.597C78.9069 332.597 78.4329 332.723 78.0489 332.975C77.6769 333.227 77.3649 333.563 77.1129 333.983L76.2489 333.173C76.5009 332.669 76.9029 332.243 77.4549 331.895C78.0069 331.535 78.7029 331.355 79.5429 331.355C80.6709 331.355 81.5469 331.631 82.1709 332.183C82.7949 332.735 83.1069 333.503 83.1069 334.487V339.599H84.1689V340.859H83.3589ZM79.2189 339.851C79.5789 339.851 79.9089 339.809 80.2089 339.725C80.5089 339.641 80.7669 339.521 80.9829 339.365C81.1989 339.209 81.3669 339.029 81.4869 338.825C81.6069 338.621 81.6669 338.399 81.6669 338.159V336.629H79.7589C78.9309 336.629 78.3249 336.749 77.9409 336.989C77.5689 337.229 77.3829 337.577 77.3829 338.033V338.411C77.3829 338.867 77.5449 339.221 77.8689 339.473C78.2049 339.725 78.6549 339.851 79.2189 339.851ZM86.4741 340.859V331.571H87.9141V333.281H88.0041C88.1721 332.837 88.4721 332.441 88.9041 332.093C89.3361 331.745 89.9301 331.571 90.6861 331.571H91.2441V333.011H90.3981C89.6181 333.011 89.0061 333.161 88.5621 333.461C88.1301 333.749 87.9141 334.115 87.9141 334.559V340.859H86.4741Z" fill="#9DA0B4"/>
<path d="M168.697 340.859L167.437 337.151H162.361L161.101 340.859H159.571L163.963 328.295H165.889L170.281 340.859H168.697ZM164.935 329.699H164.845L162.721 335.819H167.059L164.935 329.699ZM172.468 327.539H173.908V333.083H173.98C174.22 332.495 174.568 332.063 175.024 331.787C175.492 331.499 176.05 331.355 176.698 331.355C177.274 331.355 177.796 331.469 178.264 331.697C178.732 331.925 179.128 332.249 179.452 332.669C179.788 333.089 180.04 333.599 180.208 334.199C180.388 334.799 180.478 335.471 180.478 336.215C180.478 336.959 180.388 337.631 180.208 338.231C180.04 338.831 179.788 339.341 179.452 339.761C179.128 340.181 178.732 340.505 178.264 340.733C177.796 340.961 177.274 341.075 176.698 341.075C175.438 341.075 174.532 340.499 173.98 339.347H173.908V340.859H172.468V327.539ZM176.302 339.779C177.118 339.779 177.76 339.527 178.228 339.023C178.696 338.507 178.93 337.835 178.93 337.007V335.423C178.93 334.595 178.696 333.929 178.228 333.425C177.76 332.909 177.118 332.651 176.302 332.651C175.978 332.651 175.666 332.699 175.366 332.795C175.078 332.879 174.826 332.999 174.61 333.155C174.394 333.311 174.22 333.503 174.088 333.731C173.968 333.947 173.908 334.181 173.908 334.433V337.889C173.908 338.189 173.968 338.459 174.088 338.699C174.22 338.927 174.394 339.125 174.61 339.293C174.826 339.449 175.078 339.569 175.366 339.653C175.666 339.737 175.978 339.779 176.302 339.779ZM183.16 340.859V331.571H184.6V333.281H184.69C184.858 332.837 185.158 332.441 185.59 332.093C186.022 331.745 186.616 331.571 187.372 331.571H187.93V333.011H187.084C186.304 333.011 185.692 333.161 185.248 333.461C184.816 333.749 184.6 334.115 184.6 334.559V340.859H183.16Z" fill="#9DA0B4"/>
<path d="M266.691 330.275H266.601L265.539 332.381L262.533 337.853L259.527 332.381L258.465 330.275H258.375V340.859H256.899V328.295H258.915L262.515 335.063H262.605L266.223 328.295H268.167V340.859H266.691V330.275ZM278.362 340.859C277.822 340.859 277.432 340.715 277.192 340.427C276.964 340.139 276.82 339.779 276.76 339.347H276.67C276.466 339.923 276.13 340.355 275.662 340.643C275.194 340.931 274.636 341.075 273.988 341.075C273.004 341.075 272.236 340.823 271.684 340.319C271.144 339.815 270.874 339.131 270.874 338.267C270.874 337.391 271.192 336.719 271.828 336.251C272.476 335.783 273.478 335.549 274.834 335.549H276.67V334.631C276.67 333.971 276.49 333.467 276.13 333.119C275.77 332.771 275.218 332.597 274.474 332.597C273.91 332.597 273.436 332.723 273.052 332.975C272.68 333.227 272.368 333.563 272.116 333.983L271.252 333.173C271.504 332.669 271.906 332.243 272.458 331.895C273.01 331.535 273.706 331.355 274.546 331.355C275.674 331.355 276.55 331.631 277.174 332.183C277.798 332.735 278.11 333.503 278.11 334.487V339.599H279.172V340.859H278.362ZM274.222 339.851C274.582 339.851 274.912 339.809 275.212 339.725C275.512 339.641 275.77 339.521 275.986 339.365C276.202 339.209 276.37 339.029 276.49 338.825C276.61 338.621 276.67 338.399 276.67 338.159V336.629H274.762C273.934 336.629 273.328 336.749 272.944 336.989C272.572 337.229 272.386 337.577 272.386 338.033V338.411C272.386 338.867 272.548 339.221 272.872 339.473C273.208 339.725 273.658 339.851 274.222 339.851ZM282.197 329.393C281.885 329.393 281.657 329.321 281.513 329.177C281.381 329.021 281.315 328.823 281.315 328.583V328.349C281.315 328.109 281.381 327.917 281.513 327.773C281.657 327.617 281.885 327.539 282.197 327.539C282.509 327.539 282.731 327.617 282.863 327.773C283.007 327.917 283.079 328.109 283.079 328.349V328.583C283.079 328.823 283.007 329.021 282.863 329.177C282.731 329.321 282.509 329.393 282.197 329.393ZM281.477 331.571H282.917V340.859H281.477V331.571Z" fill="#9DA0B4"/>
<path d="M358.888 328.295V337.601C358.888 338.129 358.798 338.609 358.618 339.041C358.45 339.473 358.204 339.839 357.88 340.139C357.568 340.439 357.19 340.673 356.746 340.841C356.302 340.997 355.816 341.075 355.288 341.075C354.316 341.075 353.53 340.817 352.93 340.301C352.342 339.773 351.964 339.077 351.796 338.213L353.164 337.889C353.284 338.429 353.512 338.873 353.848 339.221C354.184 339.557 354.676 339.725 355.324 339.725C355.972 339.725 356.476 339.527 356.836 339.131C357.196 338.735 357.376 338.135 357.376 337.331V329.627H353.056V328.295H358.888ZM367.972 339.347H367.9C367.804 339.563 367.684 339.779 367.54 339.995C367.408 340.199 367.24 340.385 367.036 340.553C366.832 340.709 366.586 340.835 366.298 340.931C366.01 341.027 365.674 341.075 365.29 341.075C364.33 341.075 363.568 340.769 363.004 340.157C362.44 339.533 362.158 338.657 362.158 337.529V331.571H363.598V337.277C363.598 338.945 364.306 339.779 365.722 339.779C366.01 339.779 366.286 339.743 366.55 339.671C366.826 339.599 367.066 339.491 367.27 339.347C367.486 339.203 367.654 339.023 367.774 338.807C367.906 338.579 367.972 338.309 367.972 337.997V331.571H369.412V340.859H367.972V339.347ZM372.729 340.859V331.571H374.169V333.083H374.241C374.469 332.555 374.787 332.135 375.195 331.823C375.615 331.511 376.173 331.355 376.869 331.355C377.829 331.355 378.585 331.667 379.137 332.291C379.701 332.903 379.983 333.773 379.983 334.901V340.859H378.543V335.153C378.543 333.485 377.841 332.651 376.437 332.651C376.149 332.651 375.867 332.687 375.591 332.759C375.327 332.831 375.087 332.939 374.871 333.083C374.655 333.227 374.481 333.413 374.349 333.641C374.229 333.857 374.169 334.115 374.169 334.415V340.859H372.729Z" fill="#9DA0B4"/>
<path d="M456.39 328.295V337.601C456.39 338.129 456.3 338.609 456.12 339.041C455.952 339.473 455.706 339.839 455.382 340.139C455.07 340.439 454.692 340.673 454.248 340.841C453.804 340.997 453.318 341.075 452.79 341.075C451.818 341.075 451.032 340.817 450.432 340.301C449.844 339.773 449.466 339.077 449.298 338.213L450.666 337.889C450.786 338.429 451.014 338.873 451.35 339.221C451.686 339.557 452.178 339.725 452.826 339.725C453.474 339.725 453.978 339.527 454.338 339.131C454.698 338.735 454.878 338.135 454.878 337.331V329.627H450.558V328.295H456.39ZM465.474 339.347H465.402C465.306 339.563 465.186 339.779 465.042 339.995C464.91 340.199 464.742 340.385 464.538 340.553C464.334 340.709 464.088 340.835 463.8 340.931C463.512 341.027 463.176 341.075 462.792 341.075C461.832 341.075 461.07 340.769 460.506 340.157C459.942 339.533 459.66 338.657 459.66 337.529V331.571H461.1V337.277C461.1 338.945 461.808 339.779 463.224 339.779C463.512 339.779 463.788 339.743 464.052 339.671C464.328 339.599 464.568 339.491 464.772 339.347C464.988 339.203 465.156 339.023 465.276 338.807C465.408 338.579 465.474 338.309 465.474 337.997V331.571H466.914V340.859H465.474V339.347ZM471.76 340.859C471.256 340.859 470.872 340.721 470.608 340.445C470.356 340.157 470.23 339.797 470.23 339.365V327.539H471.67V339.599H473.038V340.859H471.76Z" fill="#9DA0B4"/>
<path d="M548.666 340.859L547.406 337.151H542.33L541.07 340.859H539.54L543.932 328.295H545.858L550.25 340.859H548.666ZM544.904 329.699H544.814L542.69 335.819H547.028L544.904 329.699ZM560.267 341.885C560.267 342.845 559.889 343.547 559.133 343.991C558.389 344.447 557.267 344.675 555.767 344.675C554.315 344.675 553.271 344.477 552.635 344.081C551.999 343.685 551.681 343.121 551.681 342.389C551.681 341.885 551.813 341.489 552.077 341.201C552.341 340.925 552.701 340.721 553.157 340.589V340.391C552.605 340.127 552.329 339.695 552.329 339.095C552.329 338.627 552.479 338.273 552.779 338.033C553.079 337.781 553.463 337.595 553.931 337.475V337.403C553.379 337.139 552.947 336.761 552.635 336.269C552.335 335.777 552.185 335.207 552.185 334.559C552.185 334.091 552.269 333.659 552.437 333.263C552.605 332.867 552.839 332.531 553.139 332.255C553.451 331.967 553.817 331.745 554.237 331.589C554.669 331.433 555.149 331.355 555.677 331.355C556.337 331.355 556.925 331.475 557.441 331.715V331.553C557.441 331.193 557.525 330.899 557.693 330.671C557.861 330.431 558.137 330.311 558.521 330.311H559.907V331.571H558.143V332.165C558.479 332.453 558.737 332.801 558.917 333.209C559.109 333.605 559.205 334.055 559.205 334.559C559.205 335.027 559.121 335.459 558.953 335.855C558.785 336.251 558.545 336.593 558.233 336.881C557.933 337.157 557.567 337.373 557.135 337.529C556.703 337.685 556.223 337.763 555.695 337.763C555.395 337.763 555.095 337.733 554.795 337.673C554.483 337.757 554.201 337.883 553.949 338.051C553.697 338.207 553.571 338.429 553.571 338.717C553.571 338.993 553.703 339.179 553.967 339.275C554.231 339.371 554.573 339.419 554.993 339.419H556.973C558.125 339.419 558.959 339.641 559.475 340.085C560.003 340.517 560.267 341.117 560.267 341.885ZM558.917 341.993C558.917 341.621 558.773 341.321 558.485 341.093C558.209 340.877 557.711 340.769 556.991 340.769H553.895C553.319 341.033 553.031 341.453 553.031 342.029C553.031 342.437 553.181 342.785 553.481 343.073C553.793 343.361 554.315 343.505 555.047 343.505H556.379C557.183 343.505 557.807 343.379 558.251 343.127C558.695 342.875 558.917 342.497 558.917 341.993ZM555.695 336.611C556.307 336.611 556.793 336.467 557.153 336.179C557.513 335.879 557.693 335.423 557.693 334.811V334.307C557.693 333.695 557.513 333.245 557.153 332.957C556.793 332.657 556.307 332.507 555.695 332.507C555.083 332.507 554.597 332.657 554.237 332.957C553.877 333.245 553.697 333.695 553.697 334.307V334.811C553.697 335.423 553.877 335.879 554.237 336.179C554.597 336.467 555.083 336.611 555.695 336.611ZM565.602 341.075C564.978 341.075 564.408 340.961 563.892 340.733C563.376 340.505 562.932 340.181 562.56 339.761C562.2 339.329 561.918 338.819 561.714 338.231C561.51 337.631 561.408 336.959 561.408 336.215C561.408 335.483 561.51 334.817 561.714 334.217C561.918 333.617 562.2 333.107 562.56 332.687C562.932 332.255 563.376 331.925 563.892 331.697C564.408 331.469 564.978 331.355 565.602 331.355C566.226 331.355 566.79 331.469 567.294 331.697C567.81 331.925 568.254 332.255 568.626 332.687C568.998 333.107 569.286 333.617 569.49 334.217C569.694 334.817 569.796 335.483 569.796 336.215C569.796 336.959 569.694 337.631 569.49 338.231C569.286 338.819 568.998 339.329 568.626 339.761C568.254 340.181 567.81 340.505 567.294 340.733C566.79 340.961 566.226 341.075 565.602 341.075ZM565.602 339.797C566.382 339.797 567.018 339.557 567.51 339.077C568.002 338.597 568.248 337.865 568.248 336.881V335.549C568.248 334.565 568.002 333.833 567.51 333.353C567.018 332.873 566.382 332.633 565.602 332.633C564.822 332.633 564.186 332.873 563.694 333.353C563.202 333.833 562.956 334.565 562.956 335.549V336.881C562.956 337.865 563.202 338.597 563.694 339.077C564.186 339.557 564.822 339.797 565.602 339.797Z" fill="#9DA0B4"/>
<path d="M643.264 341.075C642.244 341.075 641.374 340.883 640.654 340.499C639.934 340.103 639.322 339.563 638.818 338.879L639.934 337.943C640.378 338.531 640.87 338.981 641.41 339.293C641.95 339.593 642.586 339.743 643.318 339.743C644.218 339.743 644.902 339.527 645.37 339.095C645.85 338.663 646.09 338.087 646.09 337.367C646.09 336.767 645.91 336.305 645.55 335.981C645.19 335.657 644.596 335.399 643.768 335.207L642.742 334.973C641.59 334.709 640.708 334.313 640.096 333.785C639.496 333.245 639.196 332.489 639.196 331.517C639.196 330.965 639.298 330.473 639.502 330.041C639.706 329.609 639.988 329.249 640.348 328.961C640.72 328.673 641.158 328.457 641.662 328.313C642.178 328.157 642.742 328.079 643.354 328.079C644.302 328.079 645.112 328.253 645.784 328.601C646.468 328.949 647.044 329.459 647.512 330.131L646.378 330.959C646.03 330.479 645.61 330.101 645.118 329.825C644.626 329.549 644.014 329.411 643.282 329.411C642.478 329.411 641.842 329.585 641.374 329.933C640.918 330.269 640.69 330.779 640.69 331.463C640.69 332.063 640.882 332.519 641.266 332.831C641.662 333.131 642.256 333.371 643.048 333.551L644.074 333.785C645.31 334.061 646.204 334.481 646.756 335.045C647.308 335.609 647.584 336.359 647.584 337.295C647.584 337.871 647.482 338.393 647.278 338.861C647.086 339.329 646.804 339.725 646.432 340.049C646.06 340.373 645.604 340.625 645.064 340.805C644.536 340.985 643.936 341.075 643.264 341.075ZM653.793 341.075C653.157 341.075 652.581 340.961 652.065 340.733C651.561 340.505 651.123 340.181 650.751 339.761C650.391 339.329 650.109 338.819 649.905 338.231C649.713 337.631 649.617 336.959 649.617 336.215C649.617 335.483 649.713 334.817 649.905 334.217C650.109 333.617 650.391 333.107 650.751 332.687C651.123 332.255 651.561 331.925 652.065 331.697C652.581 331.469 653.157 331.355 653.793 331.355C654.417 331.355 654.975 331.469 655.467 331.697C655.959 331.925 656.379 332.243 656.727 332.651C657.075 333.047 657.339 333.521 657.519 334.073C657.711 334.625 657.807 335.231 657.807 335.891V336.575H651.129V337.007C651.129 337.403 651.189 337.775 651.309 338.123C651.441 338.459 651.621 338.753 651.849 339.005C652.089 339.257 652.377 339.455 652.713 339.599C653.061 339.743 653.451 339.815 653.883 339.815C654.471 339.815 654.981 339.677 655.413 339.401C655.857 339.125 656.199 338.729 656.439 338.213L657.465 338.951C657.165 339.587 656.697 340.103 656.061 340.499C655.425 340.883 654.669 341.075 653.793 341.075ZM653.793 332.561C653.397 332.561 653.037 332.633 652.713 332.777C652.389 332.909 652.107 333.101 651.867 333.353C651.639 333.605 651.459 333.905 651.327 334.253C651.195 334.589 651.129 334.961 651.129 335.369V335.495H656.259V335.297C656.259 334.469 656.031 333.809 655.575 333.317C655.131 332.813 654.537 332.561 653.793 332.561ZM662.481 340.859C661.977 340.859 661.593 340.721 661.329 340.445C661.077 340.157 660.951 339.785 660.951 339.329V332.831H659.421V331.571H660.285C660.597 331.571 660.807 331.511 660.915 331.391C661.035 331.259 661.095 331.037 661.095 330.725V328.997H662.391V331.571H664.425V332.831H662.391V339.599H664.281V340.859H662.481Z" fill="#9DA0B4"/>
<path d="M737.634 341.075C736.818 341.075 736.08 340.937 735.42 340.661C734.772 340.373 734.214 339.959 733.746 339.419C733.29 338.867 732.936 338.189 732.684 337.385C732.432 336.569 732.306 335.633 732.306 334.577C732.306 333.521 732.432 332.591 732.684 331.787C732.936 330.983 733.29 330.305 733.746 329.753C734.214 329.201 734.772 328.787 735.42 328.511C736.08 328.223 736.818 328.079 737.634 328.079C738.438 328.079 739.17 328.223 739.83 328.511C740.49 328.787 741.048 329.201 741.504 329.753C741.972 330.305 742.332 330.983 742.584 331.787C742.836 332.591 742.962 333.521 742.962 334.577C742.962 335.633 742.836 336.569 742.584 337.385C742.332 338.189 741.972 338.867 741.504 339.419C741.048 339.959 740.49 340.373 739.83 340.661C739.17 340.937 738.438 341.075 737.634 341.075ZM737.634 339.725C738.174 339.725 738.672 339.629 739.128 339.437C739.584 339.245 739.974 338.969 740.298 338.609C740.634 338.249 740.892 337.817 741.072 337.313C741.252 336.809 741.342 336.245 741.342 335.621V333.533C741.342 332.909 741.252 332.345 741.072 331.841C740.892 331.337 740.634 330.905 740.298 330.545C739.974 330.185 739.584 329.909 739.128 329.717C738.672 329.525 738.174 329.429 737.634 329.429C737.094 329.429 736.596 329.525 736.14 329.717C735.684 329.909 735.288 330.185 734.952 330.545C734.628 330.905 734.376 331.337 734.196 331.841C734.016 332.345 733.926 332.909 733.926 333.533V335.621C733.926 336.245 734.016 336.809 734.196 337.313C734.376 337.817 734.628 338.249 734.952 338.609C735.288 338.969 735.684 339.245 736.14 339.437C736.596 339.629 737.094 339.725 737.634 339.725ZM751.51 339.347H751.438C751.342 339.563 751.222 339.779 751.078 339.995C750.946 340.199 750.778 340.385 750.574 340.553C750.37 340.709 750.124 340.835 749.836 340.931C749.548 341.027 749.212 341.075 748.828 341.075C747.868 341.075 747.106 340.769 746.542 340.157C745.978 339.533 745.696 338.657 745.696 337.529V331.571H747.136V337.277C747.136 338.945 747.844 339.779 749.26 339.779C749.548 339.779 749.824 339.743 750.088 339.671C750.364 339.599 750.604 339.491 750.808 339.347C751.024 339.203 751.192 339.023 751.312 338.807C751.444 338.579 751.51 338.309 751.51 337.997V331.571H752.95V340.859H751.51V339.347ZM758.318 340.859C757.814 340.859 757.43 340.721 757.166 340.445C756.914 340.157 756.788 339.785 756.788 339.329V332.831H755.258V331.571H756.122C756.434 331.571 756.644 331.511 756.752 331.391C756.872 331.259 756.932 331.037 756.932 330.725V328.997H758.228V331.571H760.262V332.831H758.228V339.599H760.118V340.859H758.318Z" fill="#9DA0B4"/>
<path d="M832.045 333.191L830.533 330.401H830.479V340.859H829.003V328.295H830.749L835.339 335.963L836.851 338.753H836.905V328.295H838.381V340.859H836.635L832.045 333.191ZM845.346 341.075C844.722 341.075 844.152 340.961 843.636 340.733C843.12 340.505 842.676 340.181 842.304 339.761C841.944 339.329 841.662 338.819 841.458 338.231C841.254 337.631 841.152 336.959 841.152 336.215C841.152 335.483 841.254 334.817 841.458 334.217C841.662 333.617 841.944 333.107 842.304 332.687C842.676 332.255 843.12 331.925 843.636 331.697C844.152 331.469 844.722 331.355 845.346 331.355C845.97 331.355 846.534 331.469 847.038 331.697C847.554 331.925 847.998 332.255 848.37 332.687C848.742 333.107 849.03 333.617 849.234 334.217C849.438 334.817 849.54 335.483 849.54 336.215C849.54 336.959 849.438 337.631 849.234 338.231C849.03 338.819 848.742 339.329 848.37 339.761C847.998 340.181 847.554 340.505 847.038 340.733C846.534 340.961 845.97 341.075 845.346 341.075ZM845.346 339.797C846.126 339.797 846.762 339.557 847.254 339.077C847.746 338.597 847.992 337.865 847.992 336.881V335.549C847.992 334.565 847.746 333.833 847.254 333.353C846.762 332.873 846.126 332.633 845.346 332.633C844.566 332.633 843.93 332.873 843.438 333.353C842.946 333.833 842.7 334.565 842.7 335.549V336.881C842.7 337.865 842.946 338.597 843.438 339.077C843.93 339.557 844.566 339.797 845.346 339.797ZM854.069 340.859L850.811 331.571H852.251L853.871 336.179L854.879 339.347H854.969L855.977 336.179L857.633 331.571H859.019L855.743 340.859H854.069Z" fill="#9DA0B4"/>
</svg>
